<?xml version="1.0" encoding="utf-8"?>
<!DOCTYPE svg PUBLIC "-//W3C//DTD SVG 1.1//EN" "http://www.w3.org/Graphics/SVG/1.1/DTD/svg11.dtd">
<svg version="1.1" id="图形" xmlns="http://www.w3.org/2000/svg" xmlns:xlink="http://www.w3.org/1999/xlink" x="0px" y="0px" width="1024px" height="1024px" viewBox="0 0 1024 1024" enable-background="new 0 0 1024 1024" xml:space="preserve">
  <path fill="#000000" d="M734.312237 776.325499c-87.909166 0-169.646771-44.099381-223.447095-116.818589C457.096541 732.243515 375.375308 776.325499 287.418047 776.325499c-158.470221 0-287.397592-140.957359-287.397592-314.232774 0-103.371322 46.176692-175.886893 83.296101-234.150878 107.880009-169.236426 379.125737-379.846144 390.616442-388.725372 11.06808-8.555863 24.006763-12.836353 36.916794-12.836353 12.939707 0 25.860994 4.28049 36.916794 12.836353 11.502985 8.879228 282.765085 219.488946 390.614395 388.725372 37.136805 58.265008 83.328847 130.780579 83.328847 234.150878C1021.708806 635.36814 892.781435 776.325499 734.312237 776.325499z" transform="translate(0, 812) scale(1, -1)"/>
</svg>
